<mxfile host="app.diagrams.net" modified="2023-10-03T11:54:18.554Z" agent="Mozilla/5.0 (Windows NT 10.0; Win64; x64) AppleWebKit/537.36 (KHTML, like Gecko) Chrome/117.0.0.0 Safari/537.36" etag="xcbPEZoVA0-gHoqtk_rH" version="22.0.2" type="device">
  <diagram name="Страница — 1" id="KpHkTc9vrkC78i4Mz50f">
    <mxGraphModel dx="1434" dy="768" grid="1" gridSize="10" guides="1" tooltips="1" connect="1" arrows="1" fold="1" page="1" pageScale="1" pageWidth="827" pageHeight="1169" math="0" shadow="0">
      <root>
        <mxCell id="0" />
        <mxCell id="1" parent="0" />
        <mxCell id="WO5Q1Ovm5I0d_vbVHRt7-3" value="" style="edgeStyle=orthogonalEdgeStyle;rounded=0;orthogonalLoop=1;jettySize=auto;html=1;" parent="1" source="WO5Q1Ovm5I0d_vbVHRt7-1" target="WO5Q1Ovm5I0d_vbVHRt7-2" edge="1">
          <mxGeometry relative="1" as="geometry" />
        </mxCell>
        <mxCell id="WO5Q1Ovm5I0d_vbVHRt7-1" value="START" style="rounded=1;whiteSpace=wrap;html=1;" parent="1" vertex="1">
          <mxGeometry x="380" y="60" width="120" height="50" as="geometry" />
        </mxCell>
        <mxCell id="oVdlYl1g1sIQLOHqHHO0-2" value="" style="edgeStyle=orthogonalEdgeStyle;rounded=0;orthogonalLoop=1;jettySize=auto;html=1;" edge="1" parent="1" source="WO5Q1Ovm5I0d_vbVHRt7-2" target="oVdlYl1g1sIQLOHqHHO0-1">
          <mxGeometry relative="1" as="geometry" />
        </mxCell>
        <mxCell id="WO5Q1Ovm5I0d_vbVHRt7-2" value="string[] inputArray&lt;br&gt;string[] resultArray&lt;br&gt;int i = 0&lt;br&gt;int j = 0" style="shape=parallelogram;perimeter=parallelogramPerimeter;whiteSpace=wrap;html=1;fixedSize=1;" parent="1" vertex="1">
          <mxGeometry x="360" y="150" width="160" height="90" as="geometry" />
        </mxCell>
        <mxCell id="oVdlYl1g1sIQLOHqHHO0-5" value="" style="edgeStyle=orthogonalEdgeStyle;rounded=0;orthogonalLoop=1;jettySize=auto;html=1;" edge="1" parent="1" source="oVdlYl1g1sIQLOHqHHO0-1" target="oVdlYl1g1sIQLOHqHHO0-4">
          <mxGeometry relative="1" as="geometry" />
        </mxCell>
        <mxCell id="oVdlYl1g1sIQLOHqHHO0-15" value="" style="edgeStyle=orthogonalEdgeStyle;rounded=0;orthogonalLoop=1;jettySize=auto;html=1;" edge="1" parent="1" source="oVdlYl1g1sIQLOHqHHO0-1" target="oVdlYl1g1sIQLOHqHHO0-3">
          <mxGeometry relative="1" as="geometry" />
        </mxCell>
        <mxCell id="oVdlYl1g1sIQLOHqHHO0-1" value="i &amp;lt; inputArray.Length&amp;nbsp;" style="rhombus;whiteSpace=wrap;html=1;" vertex="1" parent="1">
          <mxGeometry x="340" y="290" width="200" height="100" as="geometry" />
        </mxCell>
        <mxCell id="oVdlYl1g1sIQLOHqHHO0-16" value="" style="edgeStyle=orthogonalEdgeStyle;rounded=0;orthogonalLoop=1;jettySize=auto;html=1;" edge="1" parent="1" source="oVdlYl1g1sIQLOHqHHO0-3" target="oVdlYl1g1sIQLOHqHHO0-9">
          <mxGeometry relative="1" as="geometry" />
        </mxCell>
        <mxCell id="oVdlYl1g1sIQLOHqHHO0-3" value="resultArray" style="shape=parallelogram;perimeter=parallelogramPerimeter;whiteSpace=wrap;html=1;fixedSize=1;" vertex="1" parent="1">
          <mxGeometry x="610" y="300" width="140" height="80" as="geometry" />
        </mxCell>
        <mxCell id="oVdlYl1g1sIQLOHqHHO0-10" value="" style="edgeStyle=orthogonalEdgeStyle;rounded=0;orthogonalLoop=1;jettySize=auto;html=1;" edge="1" parent="1" source="oVdlYl1g1sIQLOHqHHO0-4" target="oVdlYl1g1sIQLOHqHHO0-7">
          <mxGeometry relative="1" as="geometry" />
        </mxCell>
        <mxCell id="oVdlYl1g1sIQLOHqHHO0-13" value="" style="edgeStyle=orthogonalEdgeStyle;rounded=0;orthogonalLoop=1;jettySize=auto;html=1;" edge="1" parent="1" source="oVdlYl1g1sIQLOHqHHO0-4" target="oVdlYl1g1sIQLOHqHHO0-6">
          <mxGeometry relative="1" as="geometry" />
        </mxCell>
        <mxCell id="oVdlYl1g1sIQLOHqHHO0-4" value="&lt;div style=&quot;text-align: start;&quot;&gt;&lt;span style=&quot;background-color: initial;&quot;&gt;inputArray[i].Length &amp;lt;= 3&lt;/span&gt;&lt;/div&gt;" style="rhombus;whiteSpace=wrap;html=1;" vertex="1" parent="1">
          <mxGeometry x="340" y="430" width="200" height="90" as="geometry" />
        </mxCell>
        <mxCell id="oVdlYl1g1sIQLOHqHHO0-6" value="i++" style="rounded=0;whiteSpace=wrap;html=1;" vertex="1" parent="1">
          <mxGeometry x="130" y="445" width="120" height="60" as="geometry" />
        </mxCell>
        <mxCell id="oVdlYl1g1sIQLOHqHHO0-11" value="" style="edgeStyle=orthogonalEdgeStyle;rounded=0;orthogonalLoop=1;jettySize=auto;html=1;" edge="1" parent="1" source="oVdlYl1g1sIQLOHqHHO0-7" target="oVdlYl1g1sIQLOHqHHO0-8">
          <mxGeometry relative="1" as="geometry" />
        </mxCell>
        <mxCell id="oVdlYl1g1sIQLOHqHHO0-7" value="resultArray[j] = inputArray[i]" style="rounded=0;whiteSpace=wrap;html=1;" vertex="1" parent="1">
          <mxGeometry x="360" y="570" width="160" height="60" as="geometry" />
        </mxCell>
        <mxCell id="oVdlYl1g1sIQLOHqHHO0-12" value="" style="edgeStyle=orthogonalEdgeStyle;rounded=0;orthogonalLoop=1;jettySize=auto;html=1;" edge="1" parent="1" source="oVdlYl1g1sIQLOHqHHO0-8" target="oVdlYl1g1sIQLOHqHHO0-6">
          <mxGeometry relative="1" as="geometry" />
        </mxCell>
        <mxCell id="oVdlYl1g1sIQLOHqHHO0-8" value="j++" style="rounded=0;whiteSpace=wrap;html=1;" vertex="1" parent="1">
          <mxGeometry x="130" y="570" width="120" height="60" as="geometry" />
        </mxCell>
        <mxCell id="oVdlYl1g1sIQLOHqHHO0-9" value="END" style="rounded=1;whiteSpace=wrap;html=1;" vertex="1" parent="1">
          <mxGeometry x="620" y="430" width="120" height="60" as="geometry" />
        </mxCell>
        <mxCell id="oVdlYl1g1sIQLOHqHHO0-14" value="" style="endArrow=classic;html=1;rounded=0;entryX=0;entryY=0.5;entryDx=0;entryDy=0;" edge="1" parent="1" target="oVdlYl1g1sIQLOHqHHO0-1">
          <mxGeometry width="50" height="50" relative="1" as="geometry">
            <mxPoint x="190" y="445" as="sourcePoint" />
            <mxPoint x="240" y="395" as="targetPoint" />
            <Array as="points">
              <mxPoint x="190" y="340" />
            </Array>
          </mxGeometry>
        </mxCell>
        <mxCell id="oVdlYl1g1sIQLOHqHHO0-17" value="no" style="text;html=1;strokeColor=none;fillColor=none;align=center;verticalAlign=middle;whiteSpace=wrap;rounded=0;" vertex="1" parent="1">
          <mxGeometry x="540" y="310" width="60" height="30" as="geometry" />
        </mxCell>
        <mxCell id="oVdlYl1g1sIQLOHqHHO0-18" value="Yes" style="text;html=1;strokeColor=none;fillColor=none;align=center;verticalAlign=middle;whiteSpace=wrap;rounded=0;" vertex="1" parent="1">
          <mxGeometry x="440" y="400" width="60" height="30" as="geometry" />
        </mxCell>
        <mxCell id="oVdlYl1g1sIQLOHqHHO0-19" value="Yes" style="text;html=1;strokeColor=none;fillColor=none;align=center;verticalAlign=middle;whiteSpace=wrap;rounded=0;" vertex="1" parent="1">
          <mxGeometry x="440" y="530" width="60" height="30" as="geometry" />
        </mxCell>
        <mxCell id="oVdlYl1g1sIQLOHqHHO0-20" value="No" style="text;html=1;strokeColor=none;fillColor=none;align=center;verticalAlign=middle;whiteSpace=wrap;rounded=0;" vertex="1" parent="1">
          <mxGeometry x="270" y="445" width="60" height="30" as="geometry" />
        </mxCell>
      </root>
    </mxGraphModel>
  </diagram>
</mxfile>
